<?xml version="1.0" standalone="no"?>
<!DOCTYPE svg PUBLIC "-//W3C//DTD SVG 20010904//EN"
 "http://www.w3.org/TR/2001/REC-SVG-20010904/DTD/svg10.dtd">
<svg version="1.0" xmlns="http://www.w3.org/2000/svg"
 width="512.000000pt" height="512.000000pt" viewBox="0 0 512.000000 512.000000"
 preserveAspectRatio="xMidYMid meet">

<g transform="translate(0.000000,512.000000) scale(0.100000,-0.100000)"
fill="#E54C18" stroke="none">
<path d="M1060 4605 l0 -345 110 0 110 0 0 110 0 110 115 0 115 0 0 -110 0
-110 110 0 110 0 0 345 0 345 -110 0 -110 0 0 -120 0 -120 -115 0 -115 0 0
120 0 120 -110 0 -110 0 0 -345z"/>
<path d="M1830 4830 l0 -120 110 0 110 0 0 -230 0 -230 115 0 115 0 0 230 0
230 104 0 c74 0 105 4 108 13 3 9 2 182 -1 220 -1 4 -149 7 -331 7 l-330 0 0
-120z"/>
<path d="M2595 4938 c-3 -7 -4 -164 -3 -348 l3 -335 113 -3 112 -3 0 160 c0
88 4 162 8 165 5 3 43 -47 84 -110 l74 -115 82 123 82 123 0 -172 0 -173 115
0 115 0 0 350 0 350 -114 0 -115 0 -82 -126 -82 -125 -81 123 -82 123 -112 3
c-85 2 -114 -1 -117 -10z"/>
<path d="M3500 4600 l0 -350 285 0 285 0 0 110 0 110 -170 0 -170 0 -2 238 -3
237 -112 3 -113 3 0 -351z"/>
<path d="M720 3889 c0 -17 41 -499 90 -1072 50 -573 113 -1303 140 -1622 27
-319 52 -599 56 -623 5 -39 11 -47 70 -90 146 -106 356 -221 531 -291 254
-101 556 -170 756 -172 40 0 97 -4 127 -9 58 -8 357 10 485 31 365 58 746 214
1057 433 71 49 89 67 93 91 2 17 25 266 50 555 25 289 88 1021 140 1626 52
606 95 1118 95 1138 l0 36 -1845 0 -1845 0 0 -31z m3006 -751 c-3 -18 -13
-126 -22 -240 l-17 -208 -271 0 c-266 0 -1480 -11 -1482 -14 -1 0 6 -91 17
-201 10 -110 18 -210 19 -222 l0 -23 841 0 840 0 -6 -42 c-4 -34 -51 -588 -79
-938 -20 -245 -38 -426 -44 -432 -4 -3 -146 -45 -317 -93 -170 -48 -312 -91
-313 -96 -2 -5 -8 -7 -12 -4 -5 3 -73 -12 -150 -35 -78 -22 -151 -40 -163 -40
-47 1 -962 268 -964 281 -1 8 -14 156 -28 329 -14 173 -28 330 -31 348 l-5 32
251 0 250 0 1 -132 c0 -73 4 -155 7 -183 l7 -50 240 -67 c132 -38 249 -69 260
-70 22 -2 485 121 498 132 9 8 62 559 55 566 -3 2 -360 7 -794 11 l-790 6 -57
691 c-32 380 -58 699 -57 709 0 16 62 17 1160 17 l1161 0 -5 -32z"/>
</g>
</svg>
